<svg xmlns="http://www.w3.org/2000/svg" viewBox="0 0 30.28 40.9"><defs><style>.cls-1{fill:#1db7e5;}.cls-2{fill:#fff;}</style></defs><g id="Layer_2" data-name="Layer 2"><g id="Layer_1-2" data-name="Layer 1"><circle class="cls-1" cx="15.44" cy="9.16" r="9.16"/><path class="cls-1" d="M9.65,18.36A26.9,26.9,0,0,0,12,19.92a7.69,7.69,0,0,0,7.49-.36A10.51,10.51,0,0,1,22.06,18a5.17,5.17,0,0,1,2.89.16,7.58,7.58,0,0,1,3.52,2c1.67,1.74,1.81,4.56,1.81,7.08v5.57A3.14,3.14,0,0,1,30.14,34a2.48,2.48,0,0,1-.9,1c-2.23,1.67-5.22,1.76-8,1.78l-12.1.17a18.4,18.4,0,0,1-4.06-.25,6.37,6.37,0,0,1-3.53-1.9C0,33,0,30.46,0,28.14l.06-3.82a6.76,6.76,0,0,1,.18-1.79,6.16,6.16,0,0,1,1.46-2.36C3.71,18,6.15,16.38,9,18,9.23,18.09,9.44,18.23,9.65,18.36Z"/><circle class="cls-2" cx="15.88" cy="33.86" r="7.04"/><rect class="cls-1" x="14.71" y="30.39" width="2.34" height="6.94"/><rect class="cls-1" x="12.42" y="32.69" width="6.94" height="2.34"/></g></g></svg>