<svg xmlns="http://www.w3.org/2000/svg" viewBox="0 0 30.86 30.86"><defs><style>.cls-1{fill:#1db7e5;}.cls-2{fill:#fff;}</style></defs><g id="Layer_2" data-name="Layer 2"><g id="Layer_1-2" data-name="Layer 1"><circle class="cls-1" cx="15.43" cy="15.43" r="15.43"/><path class="cls-2" d="M12.85,8.55a1,1,0,0,1,.62.84c.17.74.33,1.47.49,2.21a1.93,1.93,0,0,1,0,.34.69.69,0,0,1-.49.71l-.71.24a.56.56,0,0,0-.41.44,1.47,1.47,0,0,0,0,.88,9.45,9.45,0,0,0,2.87,4.17,6,6,0,0,0,.88.61,1.07,1.07,0,0,0,.66.12.55.55,0,0,0,.39-.23l.4-.57a.74.74,0,0,1,1-.31h0a6.24,6.24,0,0,1,.68.35l1.26.7.32.19a1,1,0,0,1,.54.78v.28c-.09.21-.17.43-.28.63a3,3,0,0,1-2.27,1.59h-.62l-.48-.07-.55-.14a7.68,7.68,0,0,1-2.48-1.57,17,17,0,0,1-2.36-2.66,18.33,18.33,0,0,1-2.24-3.7,7.33,7.33,0,0,1-.62-2.3v-.71l.07-.48v-.11A3,3,0,0,1,11.77,8.6a6.93,6.93,0,0,1,.78-.1Z"/></g></g></svg>